<svg width="600" height="400" viewBox="0 0 600 400" fill="none" xmlns="http://www.w3.org/2000/svg">
  <!-- Background gradient -->
  <defs>
    <linearGradient id="bgGradient" x1="0%" y1="0%" x2="100%" y2="100%">
      <stop offset="0%" style="stop-color:#1a1a1a;stop-opacity:1" />
      <stop offset="100%" style="stop-color:#0a0a0b;stop-opacity:1" />
    </linearGradient>
    <linearGradient id="carGradient" x1="0%" y1="0%" x2="100%" y2="100%">
      <stop offset="0%" style="stop-color:#2a2a2a;stop-opacity:1" />
      <stop offset="50%" style="stop-color:#1a1a1a;stop-opacity:1" />
      <stop offset="100%" style="stop-color:#0a0a0a;stop-opacity:1" />
    </linearGradient>
    <linearGradient id="taillightGradient" x1="0%" y1="0%" x2="100%" y2="0%">
      <stop offset="0%" style="stop-color:#E10600;stop-opacity:0.8" />
      <stop offset="100%" style="stop-color:#E10600;stop-opacity:0.2" />
    </linearGradient>
  </defs>
  
  <!-- Background -->
  <rect width="600" height="400" fill="url(#bgGradient)"/>
  
  <!-- Road surface -->
  <rect x="0" y="350" width="600" height="50" fill="#111111"/>
  
  <!-- Car body (side profile) -->
  <path d="M80 200 L120 180 L200 180 L280 200 L320 220 L340 240 L340 280 L320 300 L280 320 L200 320 L120 300 L100 280 L100 240 L80 220 Z" fill="url(#carGradient)" stroke="#333333" stroke-width="1"/>
  
  <!-- Car windows -->
  <path d="M120 200 L200 200 L220 220 L220 280 L200 300 L120 300 L100 280 L100 220 Z" fill="#000000" opacity="0.3"/>
  
  <!-- Wheels -->
  <circle cx="150" cy="320" r="25" fill="#1a1a1a" stroke="#333333" stroke-width="2"/>
  <circle cx="150" cy="320" r="15" fill="#000000"/>
  <circle cx="250" cy="320" r="25" fill="#1a1a1a" stroke="#333333" stroke-width="2"/>
  <circle cx="250" cy="320" r="15" fill="#000000"/>
  
  <!-- Headlights -->
  <ellipse cx="80" cy="220" rx="8" ry="12" fill="#f0f0f0" opacity="0.8"/>
  
  <!-- Taillights -->
  <ellipse cx="340" cy="240" rx="6" ry="10" fill="url(#taillightGradient)"/>
  <ellipse cx="340" cy="280" rx="6" ry="10" fill="url(#taillightGradient)"/>
  
  <!-- Grille -->
  <rect x="70" y="210" width="20" height="20" fill="#1a1a1a" stroke="#333333" stroke-width="1"/>
  
  <!-- Road markings -->
  <rect x="0" y="375" width="600" height="2" fill="#444444" opacity="0.5"/>
  <rect x="0" y="380" width="600" height="1" fill="#666666" opacity="0.3"/>
  
  <!-- Subtle highlights -->
  <path d="M120 200 L200 200 L220 220 L220 280 L200 300 L120 300" fill="none" stroke="#ffffff" stroke-width="0.5" opacity="0.1"/>
</svg>



